<mxfile host="app.diagrams.net" agent="Mozilla/5.0 (Windows NT 10.0; Win64; x64) AppleWebKit/537.36 (KHTML, like Gecko) Chrome/129.0.0.0 Safari/537.36" version="24.7.16">
  <diagram name="Page-1" id="W0En0Z21Fk9tmpfEYtqw">
    <mxGraphModel dx="1167" dy="643" grid="1" gridSize="10" guides="1" tooltips="1" connect="1" arrows="1" fold="1" page="1" pageScale="1" pageWidth="1169" pageHeight="827" math="0" shadow="0">
      <root>
        <mxCell id="0" />
        <mxCell id="1" parent="0" />
        <mxCell id="N5IzqFb8l0YeBt8PPd-b-9" value="" style="edgeStyle=orthogonalEdgeStyle;rounded=0;orthogonalLoop=1;jettySize=auto;html=1;" edge="1" parent="1" source="N5IzqFb8l0YeBt8PPd-b-1" target="N5IzqFb8l0YeBt8PPd-b-3">
          <mxGeometry relative="1" as="geometry" />
        </mxCell>
        <mxCell id="N5IzqFb8l0YeBt8PPd-b-1" value="Application code or OS change" style="rounded=0;whiteSpace=wrap;html=1;" vertex="1" parent="1">
          <mxGeometry x="100" y="90" width="120" height="60" as="geometry" />
        </mxCell>
        <mxCell id="N5IzqFb8l0YeBt8PPd-b-11" value="" style="edgeStyle=orthogonalEdgeStyle;rounded=0;orthogonalLoop=1;jettySize=auto;html=1;" edge="1" parent="1" source="N5IzqFb8l0YeBt8PPd-b-2" target="N5IzqFb8l0YeBt8PPd-b-7">
          <mxGeometry relative="1" as="geometry" />
        </mxCell>
        <mxCell id="N5IzqFb8l0YeBt8PPd-b-2" value="Infrastructure code change" style="rounded=0;whiteSpace=wrap;html=1;" vertex="1" parent="1">
          <mxGeometry x="100" y="250" width="120" height="60" as="geometry" />
        </mxCell>
        <mxCell id="N5IzqFb8l0YeBt8PPd-b-10" value="" style="edgeStyle=orthogonalEdgeStyle;rounded=0;orthogonalLoop=1;jettySize=auto;html=1;" edge="1" parent="1" source="N5IzqFb8l0YeBt8PPd-b-3" target="N5IzqFb8l0YeBt8PPd-b-6">
          <mxGeometry relative="1" as="geometry" />
        </mxCell>
        <mxCell id="N5IzqFb8l0YeBt8PPd-b-3" value="Build application container or OS image" style="rounded=0;whiteSpace=wrap;html=1;" vertex="1" parent="1">
          <mxGeometry x="280" y="90" width="120" height="60" as="geometry" />
        </mxCell>
        <mxCell id="N5IzqFb8l0YeBt8PPd-b-14" value="" style="edgeStyle=orthogonalEdgeStyle;rounded=0;orthogonalLoop=1;jettySize=auto;html=1;" edge="1" parent="1" source="N5IzqFb8l0YeBt8PPd-b-4" target="N5IzqFb8l0YeBt8PPd-b-5">
          <mxGeometry relative="1" as="geometry" />
        </mxCell>
        <mxCell id="N5IzqFb8l0YeBt8PPd-b-4" value="Update cloud and infrastructure configuration" style="rounded=0;whiteSpace=wrap;html=1;" vertex="1" parent="1">
          <mxGeometry x="560" y="200" width="120" height="60" as="geometry" />
        </mxCell>
        <mxCell id="N5IzqFb8l0YeBt8PPd-b-15" value="" style="edgeStyle=orthogonalEdgeStyle;rounded=0;orthogonalLoop=1;jettySize=auto;html=1;" edge="1" parent="1" source="N5IzqFb8l0YeBt8PPd-b-5" target="N5IzqFb8l0YeBt8PPd-b-8">
          <mxGeometry relative="1" as="geometry" />
        </mxCell>
        <mxCell id="N5IzqFb8l0YeBt8PPd-b-5" value="Deploy cloud configuration or application to environment" style="rounded=0;whiteSpace=wrap;html=1;" vertex="1" parent="1">
          <mxGeometry x="540" y="360" width="160" height="60" as="geometry" />
        </mxCell>
        <mxCell id="N5IzqFb8l0YeBt8PPd-b-13" style="edgeStyle=orthogonalEdgeStyle;rounded=0;orthogonalLoop=1;jettySize=auto;html=1;" edge="1" parent="1" source="N5IzqFb8l0YeBt8PPd-b-6" target="N5IzqFb8l0YeBt8PPd-b-4">
          <mxGeometry relative="1" as="geometry" />
        </mxCell>
        <mxCell id="N5IzqFb8l0YeBt8PPd-b-6" value="AMI or container image scanning" style="rounded=0;whiteSpace=wrap;html=1;" vertex="1" parent="1">
          <mxGeometry x="440" y="90" width="120" height="60" as="geometry" />
        </mxCell>
        <mxCell id="N5IzqFb8l0YeBt8PPd-b-12" style="edgeStyle=orthogonalEdgeStyle;rounded=0;orthogonalLoop=1;jettySize=auto;html=1;entryX=0;entryY=0.5;entryDx=0;entryDy=0;" edge="1" parent="1" source="N5IzqFb8l0YeBt8PPd-b-7" target="N5IzqFb8l0YeBt8PPd-b-4">
          <mxGeometry relative="1" as="geometry" />
        </mxCell>
        <mxCell id="N5IzqFb8l0YeBt8PPd-b-7" value="Infrastructure as code compliance scanning" style="rounded=0;whiteSpace=wrap;html=1;" vertex="1" parent="1">
          <mxGeometry x="280" y="250" width="120" height="60" as="geometry" />
        </mxCell>
        <mxCell id="N5IzqFb8l0YeBt8PPd-b-8" value="Post-deployment compliance scanning" style="rounded=0;whiteSpace=wrap;html=1;" vertex="1" parent="1">
          <mxGeometry x="560" y="490" width="120" height="60" as="geometry" />
        </mxCell>
      </root>
    </mxGraphModel>
  </diagram>
</mxfile>
